<?xml version="1.0" encoding="UTF-8" standalone="no"?>
<!-- Uploaded to: SVG Repo, www.svgrepo.com, Generator: SVG Repo Mixer Tools -->

<svg
   height="800px"
   width="800px"
   version="1.1"
   id="_x32_"
   viewBox="0 0 512 512"
   xml:space="preserve"
   sodipodi:docname="disconnect.svg"
   inkscape:version="1.4 (86a8ad7, 2024-10-11)"
   xmlns:inkscape="http://www.inkscape.org/namespaces/inkscape"
   xmlns:sodipodi="http://sodipodi.sourceforge.net/DTD/sodipodi-0.dtd"
   xmlns="http://www.w3.org/2000/svg"
   xmlns:svg="http://www.w3.org/2000/svg"><defs
   id="defs2">
	
	
	
	
</defs><sodipodi:namedview
   id="namedview2"
   pagecolor="#ffffff"
   bordercolor="#000000"
   borderopacity="0.25"
   inkscape:showpageshadow="2"
   inkscape:pageopacity="0.0"
   inkscape:pagecheckerboard="0"
   inkscape:deskcolor="#d1d1d1"
   inkscape:zoom="0.35664698"
   inkscape:cx="740.22777"
   inkscape:cy="346.2808"
   inkscape:window-width="1920"
   inkscape:window-height="1009"
   inkscape:window-x="1912"
   inkscape:window-y="-8"
   inkscape:window-maximized="1"
   inkscape:current-layer="_x32_" />
<style
   type="text/css"
   id="style1">
	.st0{fill:#000000;}
</style>

<style
   type="text/css"
   id="style1-9">
	.st0{fill:#000000;}
</style><g
   id="g1"
   transform="translate(0,-19.77125)"><g
     id="g4"
     transform="translate(0,-55.04)"><g
       id="g2">
	<path
   class="st0"
   d="M 101.723,233.634 H 0 v 44.741 h 101.723 c 9.87,36.784 43.344,63.904 83.248,63.904 h 62.31 V 169.722 h -62.31 c -39.905,0 -73.387,27.12 -83.248,63.912 z"
   id="path1" />
	<path
   class="st0"
   d="M 512,233.634 H 410.269 c -9.862,-36.792 -43.336,-63.912 -83.24,-63.912 H 264.72 v 172.557 h 62.309 c 39.896,0 73.369,-27.12 83.24,-63.904 H 512 Z"
   id="path2" />
</g></g><g
     id="g3"
     transform="translate(-4.15689,-55.04)"><polygon
       class="st0"
       points="218.754,366.262 151.441,319.07 151.441,348.564 89.272,348.564 89.272,366.262 89.272,383.962 151.441,383.962 151.441,413.456 "
       id="polygon2"
       transform="matrix(-1,0,0,1,312.18489,78.4445)" /><polygon
       class="st0"
       points="422.724,348.564 360.555,348.564 360.555,319.07 293.242,366.262 360.555,413.456 360.555,383.962 422.724,383.962 422.724,366.262 "
       id="polygon3"
       transform="matrix(-1,0,0,1,720.12489,78.4445)" /></g></g><style
   type="text/css"
   id="style1-5">
	.st0{fill:#000000;}
</style></svg>
