<?xml version="1.0" encoding="UTF-8" standalone="no"?>
<!-- Uploaded to: SVG Repo, www.svgrepo.com, Generator: SVG Repo Mixer Tools -->

<svg
   height="800px"
   width="800px"
   version="1.1"
   id="Capa_1"
   viewBox="0 0 26 26"
   xml:space="preserve"
   sodipodi:docname="set_zero.svg"
   inkscape:version="1.4 (86a8ad7, 2024-10-11)"
   xmlns:inkscape="http://www.inkscape.org/namespaces/inkscape"
   xmlns:sodipodi="http://sodipodi.sourceforge.net/DTD/sodipodi-0.dtd"
   xmlns="http://www.w3.org/2000/svg"
   xmlns:svg="http://www.w3.org/2000/svg"><defs
   id="defs2">
	
	
</defs><sodipodi:namedview
   id="namedview2"
   pagecolor="#ffffff"
   bordercolor="#000000"
   borderopacity="0.25"
   inkscape:showpageshadow="2"
   inkscape:pageopacity="0.0"
   inkscape:pagecheckerboard="0"
   inkscape:deskcolor="#d1d1d1"
   inkscape:zoom="0.504375"
   inkscape:cx="224.03965"
   inkscape:cy="443.12268"
   inkscape:window-width="1920"
   inkscape:window-height="1009"
   inkscape:window-x="1912"
   inkscape:window-y="-8"
   inkscape:window-maximized="1"
   inkscape:current-layer="Capa_1" />
<path
   style="fill:#030104"
   d="M 21.125,2 C 22.71,2 24,3.29 24,4.875 v 16.25 C 24,22.71 22.71,24 21.125,24 H 4.875 C 3.29,24 2,22.71 2,21.125 V 4.875 C 2,3.29 3.29,2 4.875,2 h 16.25 m 0,-2 H 4.875 C 2.182,0 0,2.182 0,4.875 v 16.25 C 0,23.818 2.182,26 4.875,26 h 16.25 C 23.818,26 26,23.818 26,21.125 V 4.875 C 26,2.182 23.818,0 21.125,0 Z"
   id="path1" /><path
   style="fill:#030104"
   d="m 13.0715,4.0086059 c -2.798,0 -4.535,2.428 -4.535,6.3370001 0.02,3.863 1.702,6.263 4.392,6.263 2.882,0 4.535,-2.329 4.535,-6.39 -0.001,-3.8890001 -1.642,-6.2100001 -4.392,-6.2100001 z m -0.072,10.4070001 c -1.084,0 -1.73,-1.529 -1.73,-4.09 0,-2.5440001 0.67,-4.1250001 1.749,-4.1250001 1.415,0 1.712,2.214 1.712,4.0710001 -10e-4,1.548 -0.226,4.144 -1.731,4.144 z"
   id="path2" />
<path
   sodipodi:type="star"
   style="fill:#000000;stroke:none;stroke-width:0.0614172"
   id="path3"
   inkscape:flatsided="true"
   sodipodi:sides="3"
   sodipodi:cx="13.273854"
   sodipodi:cy="21.553904"
   sodipodi:r1="2.7970426"
   sodipodi:r2="1.3985213"
   sodipodi:arg1="0.52359878"
   sodipodi:arg2="1.5707963"
   inkscape:rounded="0"
   inkscape:randomized="0"
   d="m 15.696164,22.952425 -4.84462,0 2.42231,-4.195564 z"
   inkscape:transform-center-y="0.6992605"
   transform="matrix(1,0,0,-1,-0.27385425,41.576031)" /></svg>
